<?xml version="1.0" encoding="UTF-8"?>
<svg width="32" height="32" viewBox="0 0 32 32" fill="none" xmlns="http://www.w3.org/2000/svg">
  <rect width="32" height="32" rx="8" fill="#1E40AF"/>
  <path d="M16 6C14.3431 6 13 7.34315 13 9C13 9.82843 13.3358 10.5772 13.8906 11.1172C12.7156 11.5672 12 12.6937 12 14V15C12 15.6849 12.2311 16.3203 12.6172 16.8281C11.0609 17.5191 10 19.1497 10 21V24C10 24.5523 10.4477 25 11 25H21C21.5523 25 22 24.5523 22 24V21C22 19.1497 20.9391 17.5191 19.3828 16.8281C19.7689 16.3203 20 15.6849 20 15V14C20 12.6937 19.2844 11.5672 18.1094 11.1172C18.6642 10.5772 19 9.82843 19 9C19 7.34315 17.6569 6 16 6Z" fill="white"/>
</svg> 